<?xml version="1.0" encoding="iso-8859-1"?>
<!-- Generator: Adobe Illustrator 16.0.0, SVG Export Plug-In . SVG Version: 6.00 Build 0)  -->
<!DOCTYPE svg PUBLIC "-//W3C//DTD SVG 1.1//EN" "http://www.w3.org/Graphics/SVG/1.1/DTD/svg11.dtd">
<svg version="1.1" id="Capa_1" xmlns="http://www.w3.org/2000/svg" xmlns:xlink="http://www.w3.org/1999/xlink" x="0px" y="0px"
	 width="337.074px" height="337.073px" viewBox="0 0 337.074 337.073" style="enable-background:new 0 0 337.074 337.073;"
	 xml:space="preserve">
<g>
	<path d="M168.537,0.003C75.594,0.003,0,75.606,0,168.54c0,92.924,75.594,168.53,168.537,168.53
		c92.925,0,168.537-75.606,168.537-168.53C337.074,75.606,261.461,0.003,168.537,0.003z M224.328,177.265l-94.149,94.131
		c-2.408,2.408-5.552,3.615-8.719,3.615c-3.146,0-6.302-1.207-8.713-3.615c-4.819-4.815-4.819-12.622,0-17.438l85.424-85.424
		l-85.43-85.428c-4.819-4.807-4.819-12.61,0-17.426c4.816-4.822,12.619-4.822,17.432,0l94.143,94.134
		C229.143,164.634,229.143,172.437,224.328,177.265z"/>
</g>
<g>
</g>
<g>
</g>
<g>
</g>
<g>
</g>
<g>
</g>
<g>
</g>
<g>
</g>
<g>
</g>
<g>
</g>
<g>
</g>
<g>
</g>
<g>
</g>
<g>
</g>
<g>
</g>
<g>
</g>
</svg>
